HIERARCHY
ROOT Hips
{
	OFFSET -0.001795 -0.223333 0.028219
	CHANNELS 6 Xposition Yposition Zposition Zrotation Yrotation Xrotation 
	JOINT LeftUpLeg
	{
		OFFSET 0.069520 -0.091406 -0.006815
		CHANNELS 3 Zrotation Yrotation Xrotation
		JOINT LeftLeg
		{
			OFFSET 0.034277 -0.375199 -0.004496
			CHANNELS 3 Zrotation Yrotation Xrotation
			JOINT LeftFoot
			{
				OFFSET -0.013596 -0.397961 -0.043693
				CHANNELS 3 Zrotation Yrotation Xrotation
				JOINT LeftToe
				{
					OFFSET 0.026358 -0.055791 0.119288
					CHANNELS 3 Zrotation Yrotation Xrotation
					End Site
					{
						OFFSET 0.000000 0.000000 0.000000
					}
				}
			}
		}
	}
	JOINT RightUpLeg
	{
		OFFSET -0.067670 -0.090522 -0.004320
		CHANNELS 3 Zrotation Yrotation Xrotation
		JOINT RightLeg
		{
			OFFSET -0.038290 -0.382569 -0.008850
			CHANNELS 3 Zrotation Yrotation Xrotation
			JOINT RightFoot
			{
				OFFSET 0.015774 -0.398415 -0.042312
				CHANNELS 3 Zrotation Yrotation Xrotation
				JOINT RightToe
				{
					OFFSET -0.025372 -0.048144 0.123348
					CHANNELS 3 Zrotation Yrotation Xrotation
					End Site
					{
						OFFSET 0.000000 0.000000 0.000000
					}
				}
			}
		}
	}
	JOINT Spine
	{
		OFFSET -0.002533 0.108963 -0.026696
		CHANNELS 3 Zrotation Yrotation Xrotation
		JOINT Spine1
		{
			OFFSET 0.005487 0.135180 0.001092
			CHANNELS 3 Zrotation Yrotation Xrotation
			JOINT Spine2
			{
				OFFSET 0.001457 0.052922 0.025425
				CHANNELS 3 Zrotation Yrotation Xrotation
				JOINT Neck
				{
					OFFSET -0.002778 0.213870 -0.042857
					CHANNELS 3 Zrotation Yrotation Xrotation
					JOINT Head
					{
						OFFSET 0.005152 0.064970 0.051349
						CHANNELS 3 Zrotation Yrotation Xrotation
						End Site
						{
							OFFSET 0.000000 0.000000 0.000000
						}
					}
				}
				JOINT LeftShoulder
				{
					OFFSET 0.078845 0.121749 -0.034090
					CHANNELS 3 Zrotation Yrotation Xrotation
					JOINT LeftArm
					{
						OFFSET 0.090977 0.030469 -0.008868
						CHANNELS 3 Zrotation Yrotation Xrotation
						JOINT LeftForeArm
						{
							OFFSET 0.259612 -0.012772 -0.027456
							CHANNELS 3 Zrotation Yrotation Xrotation
							JOINT LeftHand
							{
								OFFSET 0.249234 0.008986 -0.001171
								CHANNELS 3 Zrotation Yrotation Xrotation
								End Site
								{
									OFFSET 0.000000 0.000000 0.000000
								}
							}
						}
					}
				}
				JOINT RightShoulder
				{
					OFFSET -0.081759 0.118833 -0.038615
					CHANNELS 3 Zrotation Yrotation Xrotation
					JOINT RightArm
					{
						OFFSET -0.096012 0.032551 -0.009143
						CHANNELS 3 Zrotation Yrotation Xrotation
						JOINT RightForeArm
						{
							OFFSET -0.253742 -0.013329 -0.021401
							CHANNELS 3 Zrotation Yrotation Xrotation
							JOINT RightHand
							{
								OFFSET -0.255298 0.007772 -0.005559
								CHANNELS 3 Zrotation Yrotation Xrotation
								End Site
								{
									OFFSET 0.000000 0.000000 0.000000
								}
							}
						}
					}
				}
			}
		}
	}
}
MOTION
Frames: 14
Frame Time: 0.05000000
-0.920327 0.863886 -8.343915 5.274466 14.780546 -7.394718 -13.516580 -2.388563 -8.131074 0.366351 -1.500113 23.077658 9.272919 10.365964 -27.023279 0.000000 0.000000 0.000000 -3.780309 0.446705 -12.803450 -3.314263 2.456645 88.156092 3.479614 5.739654 4.210129 0.000000 0.000000 0.000000 -2.429547 -0.339028 8.103427 -1.627029 1.127940 -14.582705 -0.531309 7.666636 27.853092 4.772713 1.810990 -33.830458 0.000000 0.000000 0.000000 21.767991 5.284115 3.352077 -89.226096 -11.284707 -13.488823 -18.193259 -14.791566 3.045648 0.000000 0.000000 0.000000 -25.346441 -5.131341 -2.576287 99.066243 11.938012 14.013131 5.079093 26.323193 1.990086 0.000000 0.000000 0.000000 
-1.054968 0.870436 -8.734955 3.985890 19.632111 -8.864899 -13.302942 -0.172681 2.557863 3.257912 -1.471408 13.434253 9.449712 6.039142 -29.288825 0.000000 0.000000 0.000000 -1.492645 1.136044 -23.912812 -3.355856 0.015196 88.556945 1.533667 4.353950 -1.154450 0.000000 0.000000 0.000000 -1.264420 -0.467911 10.237449 -1.049243 1.009400 -14.487094 -2.090229 2.803754 27.471423 4.108550 1.625155 -32.551446 0.000000 0.000000 0.000000 22.021268 4.390590 2.971900 -89.765190 -14.274831 -9.062687 -16.476195 -20.260713 3.909057 0.000000 0.000000 0.000000 -24.940541 -5.229514 -1.956542 98.514701 8.442250 7.452887 8.149674 24.754646 2.548122 0.000000 0.000000 0.000000 
-1.219113 0.871147 -9.115087 2.715034 23.889603 -9.793747 -11.825302 1.496600 12.505064 4.503479 -0.962260 6.026909 10.035061 1.767383 -32.928172 0.000000 0.000000 0.000000 -0.392621 1.225444 -31.547990 -3.746421 -0.963847 79.700554 -0.744479 4.583917 -11.773296 0.000000 0.000000 0.000000 -0.640063 -0.555395 11.213606 -0.481735 0.884788 -14.581367 -2.773347 -0.652564 27.562568 3.521082 1.635020 -32.113405 0.000000 0.000000 0.000000 23.030079 4.337778 2.780509 -89.444232 -18.737867 -3.997497 -15.499656 -25.975078 4.857376 0.000000 0.000000 0.000000 -24.511646 -6.219968 -1.757689 97.550079 5.442483 2.722437 10.542170 22.297855 2.735198 0.000000 0.000000 0.000000 
-1.405963 0.863982 -9.450229 1.858686 26.727612 -9.263885 -10.710987 2.220457 19.067812 5.733887 -0.748698 2.344801 10.809434 0.360873 -35.594900 0.000000 0.000000 0.000000 0.817019 1.394190 -34.790862 -3.815885 -0.539123 60.314471 -3.168355 0.602308 -22.638212 0.000000 0.000000 0.000000 -0.179333 -0.564664 10.791862 -0.040648 0.778008 -14.539207 -3.095908 -2.131235 28.183692 3.972803 1.412125 -32.376316 0.000000 0.000000 0.000000 23.381762 4.091329 2.813317 -88.169779 -23.028869 -0.058125 -14.118783 -30.419293 5.327720 0.000000 0.000000 0.000000 -23.466594 -7.090936 -1.946853 96.123114 1.694687 -1.237694 11.793364 20.932480 2.787067 0.000000 0.000000 0.000000 
-1.588060 0.851743 -9.718147 1.139109 30.353719 -7.681467 -9.128164 2.264800 23.583687 5.775484 -0.557247 0.741806 11.638540 -0.495304 -37.705504 0.000000 0.000000 0.000000 0.998213 1.134992 -36.522666 -2.227224 -0.124920 35.034532 -3.112385 -3.333664 -22.828732 0.000000 0.000000 0.000000 0.080007 -0.477988 8.814352 0.541118 0.635809 -14.583425 -4.038960 -4.458599 28.730443 3.904876 1.363159 -32.574038 0.000000 0.000000 0.000000 23.467060 3.578345 2.731739 -87.386608 -25.683810 2.847548 -10.438026 -35.875963 5.149896 0.000000 0.000000 0.000000 -23.138222 -8.222048 -2.072893 95.594704 -2.535530 -5.603476 12.260054 18.558293 2.490255 0.000000 0.000000 0.000000 
-1.736659 0.841397 -9.890196 1.318205 31.950762 -4.087247 -8.269785 2.063840 24.180969 4.155270 -0.632234 4.205460 12.324887 1.200690 -38.784182 0.000000 0.000000 0.000000 -0.221095 0.704061 -37.580211 1.128445 -0.532986 18.768636 -2.780854 -4.293515 -21.903300 0.000000 0.000000 0.000000 -0.177455 -0.238053 4.549709 0.565691 0.629945 -13.898306 -4.212421 -6.061676 28.151389 3.895321 1.256411 -32.497825 0.000000 0.000000 0.000000 23.000930 3.396139 2.561143 -86.245606 -25.526478 3.530227 -9.583047 -39.283441 5.350965 0.000000 0.000000 0.000000 -23.214211 -8.101991 -1.931733 94.657037 -4.599053 -7.759750 12.983191 16.739562 2.267555 0.000000 0.000000 0.000000 
-1.845695 0.835132 -9.914903 0.765751 34.711133 -3.142636 -5.851412 1.334615 25.413660 3.419346 -1.023713 9.750427 12.746522 -0.135811 -40.334690 0.000000 0.000000 0.000000 0.593107 0.698684 -39.547131 0.847974 -1.029397 25.811829 -2.909303 -5.226030 -21.269289 0.000000 0.000000 0.000000 0.276579 -0.127604 2.427396 0.944131 0.535819 -13.654685 -4.477278 -6.098990 28.370581 4.382146 1.169563 -31.976634 0.000000 0.000000 0.000000 22.624618 3.649358 2.803202 -86.326142 -25.415253 2.437968 -10.528476 -41.332863 5.956770 0.000000 0.000000 0.000000 -22.883376 -8.331689 -2.353101 94.934274 -6.154910 -7.928697 11.993810 15.396206 1.906988 0.000000 0.000000 0.000000 
-1.914995 0.838086 -9.798639 -0.291106 35.936807 -4.026706 -3.994650 0.841168 24.104758 2.294999 -2.565986 23.147711 11.240086 -0.361308 -35.001354 0.000000 0.000000 0.000000 3.423865 1.658939 -39.507997 -0.824787 -1.481366 36.387224 -2.433671 -3.318784 -17.884819 0.000000 0.000000 0.000000 0.602810 -0.067272 1.414100 1.007511 0.545748 -14.001148 -3.608272 -5.647140 28.765743 5.199610 0.907039 -31.659297 0.000000 0.000000 0.000000 23.223478 4.244064 3.070128 -87.045454 -21.880677 -1.754476 -17.384277 -41.839468 8.718287 0.000000 0.000000 0.000000 -22.629838 -7.857257 -2.573519 93.762956 -6.705449 -7.509254 13.310585 15.841952 2.127324 0.000000 0.000000 0.000000 
-2.027704 0.847867 -9.738055 -1.270977 35.374930 -4.796869 -1.830550 0.586553 15.817853 -5.148891 -3.723601 44.887260 6.726909 2.141920 -18.984274 0.000000 0.000000 0.000000 6.906206 3.087195 -35.550546 -2.828069 -1.378838 43.047048 -2.515217 -2.535650 -21.023281 0.000000 0.000000 0.000000 1.132451 -0.061110 1.444496 1.002629 0.548745 -14.225579 -2.432520 -3.730735 28.668711 5.489175 1.146826 -32.858028 0.000000 0.000000 0.000000 23.044385 4.366661 3.409844 -88.892272 -19.638226 -5.245078 -20.966629 -38.706949 9.341482 0.000000 0.000000 0.000000 -22.021858 -6.505110 -2.757894 93.341794 -4.069980 -3.827438 12.634662 17.790938 2.344047 0.000000 0.000000 0.000000 
-2.223116 0.858725 -9.856949 -1.294179 36.260366 -4.999201 -1.219714 0.196647 2.477301 -14.612256 -2.385482 66.334718 6.578670 12.271393 -4.154044 0.000000 0.000000 0.000000 8.149274 3.288989 -27.975488 -4.056645 -0.997853 41.623921 -2.714700 -1.759293 -30.845677 0.000000 0.000000 0.000000 1.114897 -0.104522 2.182744 0.806374 0.636765 -14.588485 -1.570944 -0.745317 29.096910 6.229733 1.388661 -33.767142 0.000000 0.000000 0.000000 23.555874 4.199321 4.279557 -90.184855 -20.424118 -7.600130 -23.647857 -32.868160 8.678126 0.000000 0.000000 0.000000 -22.233073 -5.999226 -3.433081 94.628139 -2.056781 1.000271 10.387377 20.745559 2.397718 0.000000 0.000000 0.000000 
-2.450086 0.869072 -10.094782 -0.792806 37.084825 -6.521781 -1.019795 -1.172879 -11.208706 -23.559620 3.364204 79.894269 10.953881 23.125830 4.905409 0.000000 0.000000 0.000000 8.038340 2.558251 -16.467542 -3.275692 -0.813893 33.579134 -2.442602 -0.317583 -37.995552 0.000000 0.000000 0.000000 0.683344 -0.262303 4.862309 0.482540 0.761133 -14.774825 -0.070688 2.490393 29.086613 6.989913 1.531091 -33.539212 0.000000 0.000000 0.000000 23.715792 3.831451 5.138663 -90.836616 -20.028328 -11.127651 -24.883276 -26.135115 7.127328 0.000000 0.000000 0.000000 -22.609278 -5.271425 -4.054877 96.005695 1.220267 7.166394 6.745616 24.315487 2.135417 0.000000 0.000000 0.000000 
-2.682122 0.879924 -10.357566 1.025940 36.634878 -6.646372 -0.008041 -3.043288 -22.365612 -28.306638 8.358188 79.479774 15.462175 30.903778 6.118149 0.000000 0.000000 0.000000 5.933346 1.123610 -5.466922 -1.351919 -0.772903 25.419748 -2.552504 1.739878 -42.334651 0.000000 0.000000 0.000000 -0.284016 -0.379777 6.814177 -0.113913 0.947650 -14.776776 0.754419 6.445713 28.665136 7.002424 2.045753 -33.634568 0.000000 0.000000 0.000000 22.780821 3.988579 5.663635 -90.148433 -18.809192 -14.625061 -23.113381 -20.208602 5.032394 0.000000 0.000000 0.000000 -23.546631 -4.495494 -4.679821 97.214021 6.377373 15.634780 0.601548 27.198633 1.017010 0.000000 0.000000 0.000000 
-2.921766 0.884071 -10.631447 2.407468 34.794122 -7.410486 2.338088 -4.374673 -30.523009 -29.564528 9.796995 72.081407 16.556496 33.008673 3.155263 0.000000 0.000000 0.000000 4.798859 -0.466318 4.934978 -2.478630 0.385531 17.588184 -3.094209 4.761368 -45.024664 0.000000 0.000000 0.000000 -0.624642 -0.496729 8.912128 -1.167537 1.266534 -14.796896 1.742324 10.689497 28.322001 6.773845 2.623849 -33.615810 0.000000 0.000000 0.000000 22.221209 5.000694 6.043386 -88.972599 -15.529367 -19.283113 -23.085288 -16.957117 4.046515 0.000000 0.000000 0.000000 -24.317477 -4.002508 -5.257609 96.262440 10.714697 22.245677 -4.876931 31.102319 -0.187107 0.000000 0.000000 0.000000 
-3.138543 0.879568 -10.909715 3.246063 33.357364 -5.476813 3.711177 -5.017814 -35.975374 -25.234142 6.356410 58.162863 15.642559 32.852423 -6.185896 0.000000 0.000000 0.000000 2.112014 -1.860270 12.453453 -1.529679 0.405436 9.681467 -3.543692 6.730757 -44.750084 0.000000 0.000000 0.000000 -1.199468 -0.364271 6.880496 -1.749886 1.425726 -14.320422 2.885665 14.188292 28.758583 7.160853 2.799129 -32.664335 0.000000 0.000000 0.000000 22.208622 5.881191 6.418365 -87.463905 -12.197218 -23.253015 -24.184864 -15.064502 3.564687 0.000000 0.000000 0.000000 -24.787800 -3.107756 -5.701048 93.494088 15.465584 28.015035 -11.830875 33.963635 -2.026044 0.000000 0.000000 0.000000 
